<mxfile host="app.diagrams.net" modified="2021-09-04T02:59:10.349Z" agent="5.0 (Windows NT 10.0; Win64; x64) AppleWebKit/537.36 (KHTML, like Gecko) Chrome/93.0.4577.63 Safari/537.36 Edg/93.0.961.38" etag="h-FO4qm5SyARkKBSNeVf" version="15.0.6" type="github">
  <diagram id="C5RBs43oDa-KdzZeNtuy" name="Page-1">
    <mxGraphModel dx="1865" dy="1748" grid="1" gridSize="10" guides="1" tooltips="1" connect="1" arrows="1" fold="1" page="1" pageScale="1" pageWidth="827" pageHeight="1169" math="0" shadow="0">
      <root>
        <mxCell id="WIyWlLk6GJQsqaUBKTNV-0" />
        <mxCell id="WIyWlLk6GJQsqaUBKTNV-1" parent="WIyWlLk6GJQsqaUBKTNV-0" />
        <mxCell id="WIyWlLk6GJQsqaUBKTNV-2" value="" style="rounded=0;html=1;jettySize=auto;orthogonalLoop=1;fontSize=11;endArrow=block;endFill=0;endSize=8;strokeWidth=1;shadow=0;labelBackgroundColor=none;edgeStyle=orthogonalEdgeStyle;" parent="WIyWlLk6GJQsqaUBKTNV-1" target="WIyWlLk6GJQsqaUBKTNV-6" edge="1">
          <mxGeometry relative="1" as="geometry">
            <mxPoint x="220" y="120" as="sourcePoint" />
            <Array as="points">
              <mxPoint x="220" y="130" />
            </Array>
          </mxGeometry>
        </mxCell>
        <mxCell id="WIyWlLk6GJQsqaUBKTNV-4" value="Yes" style="rounded=0;html=1;jettySize=auto;orthogonalLoop=1;fontSize=11;endArrow=block;endFill=0;endSize=8;strokeWidth=1;shadow=0;labelBackgroundColor=none;edgeStyle=orthogonalEdgeStyle;" parent="WIyWlLk6GJQsqaUBKTNV-1" source="WIyWlLk6GJQsqaUBKTNV-6" target="_sySvUtj5R98JxHizBly-9" edge="1">
          <mxGeometry y="20" relative="1" as="geometry">
            <mxPoint as="offset" />
            <mxPoint x="220" y="280" as="targetPoint" />
          </mxGeometry>
        </mxCell>
        <mxCell id="WIyWlLk6GJQsqaUBKTNV-5" value="No" style="edgeStyle=orthogonalEdgeStyle;rounded=0;html=1;jettySize=auto;orthogonalLoop=1;fontSize=11;endArrow=block;endFill=0;endSize=8;strokeWidth=1;shadow=0;labelBackgroundColor=none;" parent="WIyWlLk6GJQsqaUBKTNV-1" source="WIyWlLk6GJQsqaUBKTNV-6" target="WIyWlLk6GJQsqaUBKTNV-7" edge="1">
          <mxGeometry y="10" relative="1" as="geometry">
            <mxPoint as="offset" />
          </mxGeometry>
        </mxCell>
        <mxCell id="WIyWlLk6GJQsqaUBKTNV-6" value="Login&lt;br&gt;Credentials&lt;br&gt;Valid" style="rhombus;whiteSpace=wrap;html=1;shadow=0;fontFamily=Helvetica;fontSize=12;align=center;strokeWidth=1;spacing=6;spacingTop=-4;" parent="WIyWlLk6GJQsqaUBKTNV-1" vertex="1">
          <mxGeometry x="170" y="170" width="100" height="80" as="geometry" />
        </mxCell>
        <mxCell id="WIyWlLk6GJQsqaUBKTNV-7" value="Plug in lamp" style="rounded=1;whiteSpace=wrap;html=1;fontSize=12;glass=0;strokeWidth=1;shadow=0;" parent="WIyWlLk6GJQsqaUBKTNV-1" vertex="1">
          <mxGeometry x="-40" y="190" width="120" height="40" as="geometry" />
        </mxCell>
        <mxCell id="_sySvUtj5R98JxHizBly-56" value="" style="edgeStyle=orthogonalEdgeStyle;rounded=0;orthogonalLoop=1;jettySize=auto;html=1;" edge="1" parent="WIyWlLk6GJQsqaUBKTNV-1" source="WIyWlLk6GJQsqaUBKTNV-11" target="_sySvUtj5R98JxHizBly-26">
          <mxGeometry relative="1" as="geometry">
            <Array as="points">
              <mxPoint x="220" y="680" />
              <mxPoint x="220" y="680" />
            </Array>
          </mxGeometry>
        </mxCell>
        <mxCell id="WIyWlLk6GJQsqaUBKTNV-11" value="Remove" style="rounded=1;whiteSpace=wrap;html=1;fontSize=12;glass=0;strokeWidth=1;shadow=0;" parent="WIyWlLk6GJQsqaUBKTNV-1" vertex="1">
          <mxGeometry x="160" y="570" width="120" height="40" as="geometry" />
        </mxCell>
        <mxCell id="_sySvUtj5R98JxHizBly-0" value="&lt;span style=&quot;font-family: &amp;#34;times new roman&amp;#34; , serif ; font-size: 12pt&quot;&gt;Welcome screen displaying:&lt;br&gt;&lt;/span&gt;&lt;span style=&quot;font-family: &amp;#34;times new roman&amp;#34; , serif ; font-size: 12pt&quot;&gt;1.Application name&lt;br&gt;&lt;/span&gt;&lt;p class=&quot;MsoNormal&quot; align=&quot;center&quot;&gt;&lt;span style=&quot;font-size: 12pt ; line-height: 107% ; font-family: &amp;#34;times new roman&amp;#34; , serif&quot;&gt;2.User Interface- Option to login&lt;/span&gt;&lt;/p&gt;&lt;p class=&quot;MsoNormal&quot; align=&quot;center&quot;&gt;&lt;span style=&quot;font-size: 12pt ; line-height: 107% ; font-family: &amp;#34;times new roman&amp;#34; , serif&quot;&gt;&lt;/span&gt;&lt;/p&gt;" style="shape=display;whiteSpace=wrap;html=1;" vertex="1" parent="WIyWlLk6GJQsqaUBKTNV-1">
          <mxGeometry x="-20" y="-110" width="440" height="110" as="geometry" />
        </mxCell>
        <mxCell id="_sySvUtj5R98JxHizBly-1" value="" style="edgeStyle=orthogonalEdgeStyle;rounded=0;orthogonalLoop=1;jettySize=auto;html=1;" edge="1" parent="WIyWlLk6GJQsqaUBKTNV-1">
          <mxGeometry relative="1" as="geometry">
            <mxPoint x="220" y="3" as="sourcePoint" />
            <mxPoint x="220" y="90" as="targetPoint" />
            <Array as="points">
              <mxPoint x="220" y="20" />
              <mxPoint x="220" y="20" />
            </Array>
          </mxGeometry>
        </mxCell>
        <mxCell id="_sySvUtj5R98JxHizBly-5" style="edgeStyle=orthogonalEdgeStyle;rounded=0;orthogonalLoop=1;jettySize=auto;html=1;" edge="1" parent="WIyWlLk6GJQsqaUBKTNV-1" source="_sySvUtj5R98JxHizBly-3">
          <mxGeometry relative="1" as="geometry">
            <mxPoint x="220" y="40" as="targetPoint" />
          </mxGeometry>
        </mxCell>
        <mxCell id="_sySvUtj5R98JxHizBly-3" value="A" style="ellipse;whiteSpace=wrap;html=1;aspect=fixed;" vertex="1" parent="WIyWlLk6GJQsqaUBKTNV-1">
          <mxGeometry x="-20" y="10" width="60" height="60" as="geometry" />
        </mxCell>
        <mxCell id="_sySvUtj5R98JxHizBly-4" value="User Input Credentials" style="shape=parallelogram;perimeter=parallelogramPerimeter;whiteSpace=wrap;html=1;fixedSize=1;" vertex="1" parent="WIyWlLk6GJQsqaUBKTNV-1">
          <mxGeometry x="160" y="90" width="120" height="30" as="geometry" />
        </mxCell>
        <mxCell id="_sySvUtj5R98JxHizBly-16" style="edgeStyle=orthogonalEdgeStyle;rounded=0;orthogonalLoop=1;jettySize=auto;html=1;entryX=0.5;entryY=0;entryDx=0;entryDy=0;" edge="1" parent="WIyWlLk6GJQsqaUBKTNV-1" source="_sySvUtj5R98JxHizBly-8" target="_sySvUtj5R98JxHizBly-17">
          <mxGeometry relative="1" as="geometry">
            <mxPoint x="420" y="540" as="targetPoint" />
          </mxGeometry>
        </mxCell>
        <mxCell id="_sySvUtj5R98JxHizBly-43" value="3" style="edgeLabel;html=1;align=center;verticalAlign=middle;resizable=0;points=[];" vertex="1" connectable="0" parent="_sySvUtj5R98JxHizBly-16">
          <mxGeometry x="0.8385" y="-2" relative="1" as="geometry">
            <mxPoint as="offset" />
          </mxGeometry>
        </mxCell>
        <mxCell id="_sySvUtj5R98JxHizBly-24" style="edgeStyle=orthogonalEdgeStyle;rounded=0;orthogonalLoop=1;jettySize=auto;html=1;entryX=0.422;entryY=0.005;entryDx=0;entryDy=0;entryPerimeter=0;" edge="1" parent="WIyWlLk6GJQsqaUBKTNV-1" source="_sySvUtj5R98JxHizBly-8" target="_sySvUtj5R98JxHizBly-35">
          <mxGeometry relative="1" as="geometry">
            <mxPoint x="620" y="560" as="targetPoint" />
          </mxGeometry>
        </mxCell>
        <mxCell id="_sySvUtj5R98JxHizBly-44" value="4" style="edgeLabel;html=1;align=center;verticalAlign=middle;resizable=0;points=[];" vertex="1" connectable="0" parent="_sySvUtj5R98JxHizBly-24">
          <mxGeometry x="0.8543" y="1" relative="1" as="geometry">
            <mxPoint x="-171" y="19" as="offset" />
          </mxGeometry>
        </mxCell>
        <mxCell id="_sySvUtj5R98JxHizBly-42" value="" style="edgeStyle=orthogonalEdgeStyle;rounded=0;orthogonalLoop=1;jettySize=auto;html=1;" edge="1" parent="WIyWlLk6GJQsqaUBKTNV-1" source="_sySvUtj5R98JxHizBly-8" target="WIyWlLk6GJQsqaUBKTNV-11">
          <mxGeometry relative="1" as="geometry" />
        </mxCell>
        <mxCell id="_sySvUtj5R98JxHizBly-50" style="edgeStyle=orthogonalEdgeStyle;rounded=0;orthogonalLoop=1;jettySize=auto;html=1;exitX=1;exitY=0.5;exitDx=0;exitDy=0;" edge="1" parent="WIyWlLk6GJQsqaUBKTNV-1" source="_sySvUtj5R98JxHizBly-8" target="_sySvUtj5R98JxHizBly-61">
          <mxGeometry relative="1" as="geometry">
            <mxPoint x="760" y="515" as="targetPoint" />
            <Array as="points">
              <mxPoint x="440" y="515" />
            </Array>
          </mxGeometry>
        </mxCell>
        <mxCell id="_sySvUtj5R98JxHizBly-60" value="" style="edgeStyle=orthogonalEdgeStyle;rounded=0;orthogonalLoop=1;jettySize=auto;html=1;entryX=0.5;entryY=0;entryDx=0;entryDy=0;" edge="1" parent="WIyWlLk6GJQsqaUBKTNV-1" source="_sySvUtj5R98JxHizBly-8" target="_sySvUtj5R98JxHizBly-18">
          <mxGeometry relative="1" as="geometry">
            <mxPoint x="90" y="495" as="targetPoint" />
          </mxGeometry>
        </mxCell>
        <mxCell id="_sySvUtj5R98JxHizBly-8" value="Switch" style="rhombus;whiteSpace=wrap;html=1;shadow=0;fontFamily=Helvetica;fontSize=12;align=center;strokeWidth=1;spacing=6;spacingTop=-4;" vertex="1" parent="WIyWlLk6GJQsqaUBKTNV-1">
          <mxGeometry x="170" y="480" width="100" height="70" as="geometry" />
        </mxCell>
        <mxCell id="_sySvUtj5R98JxHizBly-13" style="edgeStyle=orthogonalEdgeStyle;rounded=0;orthogonalLoop=1;jettySize=auto;html=1;entryX=0.5;entryY=0;entryDx=0;entryDy=0;" edge="1" parent="WIyWlLk6GJQsqaUBKTNV-1" source="_sySvUtj5R98JxHizBly-9" target="_sySvUtj5R98JxHizBly-8">
          <mxGeometry relative="1" as="geometry">
            <mxPoint x="215" y="400" as="targetPoint" />
          </mxGeometry>
        </mxCell>
        <mxCell id="_sySvUtj5R98JxHizBly-9" value="&lt;div style=&quot;&quot;&gt;&lt;span&gt;&lt;b&gt;Display&amp;nbsp;&lt;/b&gt;&lt;/span&gt;&lt;/div&gt;&lt;b&gt;&lt;span&gt;&lt;div style=&quot;&quot;&gt;&lt;span&gt;classes,&lt;/span&gt;&lt;/div&gt;&lt;/span&gt;&lt;span&gt;&lt;div style=&quot;&quot;&gt;&lt;span&gt;students,&lt;/span&gt;&lt;/div&gt;&lt;/span&gt;&lt;span&gt;&lt;div style=&quot;&quot;&gt;&lt;span&gt;teachers,&lt;/span&gt;&lt;/div&gt;&lt;/span&gt;&lt;span&gt;&lt;div style=&quot;&quot;&gt;&lt;span&gt;and subjects&amp;nbsp;&lt;/span&gt;&lt;span&gt;list with options to:&lt;/span&gt;&lt;/div&gt;&lt;/span&gt;&lt;/b&gt;&lt;ol&gt;&lt;li style=&quot;&quot;&gt;&lt;span&gt;&lt;b&gt;Add data&lt;/b&gt;&lt;/span&gt;&lt;/li&gt;&lt;li style=&quot;&quot;&gt;&lt;span&gt;&lt;b&gt;Remove data&lt;/b&gt;&lt;/span&gt;&lt;/li&gt;&lt;li style=&quot;&quot;&gt;&lt;span&gt;&lt;b&gt;Modify data&lt;/b&gt;&lt;/span&gt;&lt;/li&gt;&lt;li style=&quot;&quot;&gt;&lt;span&gt;&lt;b&gt;List data&amp;nbsp;&lt;/b&gt;&lt;/span&gt;&lt;/li&gt;&lt;li style=&quot;&quot;&gt;&lt;b&gt;Back toHome&lt;/b&gt;&lt;/li&gt;&lt;/ol&gt;" style="shape=display;whiteSpace=wrap;html=1;align=center;verticalAlign=top;horizontal=1;labelPosition=center;verticalLabelPosition=middle;" vertex="1" parent="WIyWlLk6GJQsqaUBKTNV-1">
          <mxGeometry x="25" y="280" width="390" height="180" as="geometry" />
        </mxCell>
        <mxCell id="_sySvUtj5R98JxHizBly-57" value="" style="edgeStyle=orthogonalEdgeStyle;rounded=0;orthogonalLoop=1;jettySize=auto;html=1;entryX=1;entryY=0.3;entryDx=0;entryDy=0;" edge="1" parent="WIyWlLk6GJQsqaUBKTNV-1" source="_sySvUtj5R98JxHizBly-17" target="_sySvUtj5R98JxHizBly-26">
          <mxGeometry relative="1" as="geometry">
            <mxPoint x="354" y="680" as="targetPoint" />
          </mxGeometry>
        </mxCell>
        <mxCell id="_sySvUtj5R98JxHizBly-17" value="Modify" style="rounded=1;whiteSpace=wrap;html=1;fontSize=12;glass=0;strokeWidth=1;shadow=0;" vertex="1" parent="WIyWlLk6GJQsqaUBKTNV-1">
          <mxGeometry x="294" y="570" width="120" height="40" as="geometry" />
        </mxCell>
        <mxCell id="_sySvUtj5R98JxHizBly-27" style="edgeStyle=orthogonalEdgeStyle;rounded=0;orthogonalLoop=1;jettySize=auto;html=1;entryX=0;entryY=0.5;entryDx=0;entryDy=0;" edge="1" parent="WIyWlLk6GJQsqaUBKTNV-1" source="_sySvUtj5R98JxHizBly-18" target="_sySvUtj5R98JxHizBly-26">
          <mxGeometry relative="1" as="geometry">
            <Array as="points">
              <mxPoint x="35" y="710" />
            </Array>
          </mxGeometry>
        </mxCell>
        <mxCell id="_sySvUtj5R98JxHizBly-18" value="Add" style="rounded=1;whiteSpace=wrap;html=1;fontSize=12;glass=0;strokeWidth=1;shadow=0;" vertex="1" parent="WIyWlLk6GJQsqaUBKTNV-1">
          <mxGeometry x="-20" y="570" width="110" height="40" as="geometry" />
        </mxCell>
        <mxCell id="_sySvUtj5R98JxHizBly-49" value="" style="edgeStyle=orthogonalEdgeStyle;rounded=0;orthogonalLoop=1;jettySize=auto;html=1;entryX=0;entryY=0.846;entryDx=0;entryDy=0;entryPerimeter=0;startArrow=none;" edge="1" parent="WIyWlLk6GJQsqaUBKTNV-1" source="_sySvUtj5R98JxHizBly-61" target="_sySvUtj5R98JxHizBly-33">
          <mxGeometry relative="1" as="geometry">
            <mxPoint x="250" y="880" as="targetPoint" />
          </mxGeometry>
        </mxCell>
        <mxCell id="_sySvUtj5R98JxHizBly-66" style="edgeStyle=none;rounded=1;orthogonalLoop=1;jettySize=auto;html=1;" edge="1" parent="WIyWlLk6GJQsqaUBKTNV-1" source="_sySvUtj5R98JxHizBly-26">
          <mxGeometry relative="1" as="geometry">
            <mxPoint x="390" y="710" as="targetPoint" />
          </mxGeometry>
        </mxCell>
        <mxCell id="_sySvUtj5R98JxHizBly-26" value="DATABASE" style="shape=datastore;whiteSpace=wrap;html=1;" vertex="1" parent="WIyWlLk6GJQsqaUBKTNV-1">
          <mxGeometry x="200" y="680" width="100" height="60" as="geometry" />
        </mxCell>
        <mxCell id="_sySvUtj5R98JxHizBly-31" value="List" style="swimlane;fontStyle=0;childLayout=stackLayout;horizontal=1;startSize=26;horizontalStack=0;resizeParent=1;resizeParentMax=0;resizeLast=0;collapsible=1;marginBottom=0;" vertex="1" parent="WIyWlLk6GJQsqaUBKTNV-1">
          <mxGeometry x="630" y="636" width="140" height="104" as="geometry" />
        </mxCell>
        <mxCell id="_sySvUtj5R98JxHizBly-32" value="Item 1" style="text;strokeColor=none;fillColor=none;align=left;verticalAlign=top;spacingLeft=4;spacingRight=4;overflow=hidden;rotatable=0;points=[[0,0.5],[1,0.5]];portConstraint=eastwest;" vertex="1" parent="_sySvUtj5R98JxHizBly-31">
          <mxGeometry y="26" width="140" height="26" as="geometry" />
        </mxCell>
        <mxCell id="_sySvUtj5R98JxHizBly-33" value="Item 2" style="text;strokeColor=none;fillColor=none;align=left;verticalAlign=top;spacingLeft=4;spacingRight=4;overflow=hidden;rotatable=0;points=[[0,0.5],[1,0.5]];portConstraint=eastwest;" vertex="1" parent="_sySvUtj5R98JxHizBly-31">
          <mxGeometry y="52" width="140" height="26" as="geometry" />
        </mxCell>
        <mxCell id="_sySvUtj5R98JxHizBly-34" value="Item 3" style="text;strokeColor=none;fillColor=none;align=left;verticalAlign=top;spacingLeft=4;spacingRight=4;overflow=hidden;rotatable=0;points=[[0,0.5],[1,0.5]];portConstraint=eastwest;" vertex="1" parent="_sySvUtj5R98JxHizBly-31">
          <mxGeometry y="78" width="140" height="26" as="geometry" />
        </mxCell>
        <mxCell id="_sySvUtj5R98JxHizBly-72" value="" style="edgeStyle=none;rounded=1;orthogonalLoop=1;jettySize=auto;html=1;" edge="1" parent="WIyWlLk6GJQsqaUBKTNV-1" source="_sySvUtj5R98JxHizBly-35" target="_sySvUtj5R98JxHizBly-71">
          <mxGeometry relative="1" as="geometry" />
        </mxCell>
        <mxCell id="_sySvUtj5R98JxHizBly-35" value="&lt;b&gt;Back toHome&lt;/b&gt;" style="rounded=1;whiteSpace=wrap;html=1;fontSize=12;glass=0;strokeWidth=1;shadow=0;" vertex="1" parent="WIyWlLk6GJQsqaUBKTNV-1">
          <mxGeometry x="570" y="565" width="120" height="40" as="geometry" />
        </mxCell>
        <mxCell id="_sySvUtj5R98JxHizBly-41" value="2" style="text;html=1;align=center;verticalAlign=middle;resizable=0;points=[];autosize=1;strokeColor=none;fillColor=none;" vertex="1" parent="WIyWlLk6GJQsqaUBKTNV-1">
          <mxGeometry x="190" y="545" width="20" height="20" as="geometry" />
        </mxCell>
        <mxCell id="_sySvUtj5R98JxHizBly-40" value="1" style="text;html=1;align=center;verticalAlign=middle;resizable=0;points=[];autosize=1;strokeColor=none;fillColor=none;" vertex="1" parent="WIyWlLk6GJQsqaUBKTNV-1">
          <mxGeometry x="25" y="530" width="20" height="20" as="geometry" />
        </mxCell>
        <mxCell id="_sySvUtj5R98JxHizBly-65" value="" style="rounded=1;orthogonalLoop=1;jettySize=auto;html=1;" edge="1" parent="WIyWlLk6GJQsqaUBKTNV-1" source="_sySvUtj5R98JxHizBly-61" target="_sySvUtj5R98JxHizBly-26">
          <mxGeometry relative="1" as="geometry" />
        </mxCell>
        <mxCell id="_sySvUtj5R98JxHizBly-61" value="&lt;span&gt;LIST&lt;/span&gt;" style="rounded=1;whiteSpace=wrap;html=1;verticalAlign=middle;" vertex="1" parent="WIyWlLk6GJQsqaUBKTNV-1">
          <mxGeometry x="390" y="680" width="120" height="60" as="geometry" />
        </mxCell>
        <mxCell id="_sySvUtj5R98JxHizBly-69" value="5" style="edgeLabel;html=1;align=center;verticalAlign=middle;resizable=0;points=[];" vertex="1" connectable="0" parent="WIyWlLk6GJQsqaUBKTNV-1">
          <mxGeometry x="680" y="490" as="geometry">
            <mxPoint x="-51" y="58" as="offset" />
          </mxGeometry>
        </mxCell>
        <mxCell id="_sySvUtj5R98JxHizBly-71" value="A" style="ellipse;whiteSpace=wrap;html=1;aspect=fixed;" vertex="1" parent="WIyWlLk6GJQsqaUBKTNV-1">
          <mxGeometry x="730" y="555" width="60" height="60" as="geometry" />
        </mxCell>
      </root>
    </mxGraphModel>
  </diagram>
</mxfile>
